<?xml version="1.0" encoding="utf-8" standalone="no"?>
<!DOCTYPE svg PUBLIC "-//W3C//DTD SVG 1.1//EN"
  "http://www.w3.org/Graphics/SVG/1.1/DTD/svg11.dtd">
<svg xmlns:xlink="http://www.w3.org/1999/xlink" width="406.531719pt" height="246.917594pt" viewBox="0 0 406.531719 246.917594" xmlns="http://www.w3.org/2000/svg" version="1.1">
 <metadata>
  <rdf:RDF xmlns:dc="http://purl.org/dc/elements/1.1/" xmlns:cc="http://creativecommons.org/ns#" xmlns:rdf="http://www.w3.org/1999/02/22-rdf-syntax-ns#">
   <cc:Work>
    <dc:type rdf:resource="http://purl.org/dc/dcmitype/StillImage"/>
    <dc:date>2026-08-31T12:02:53.101279</dc:date>
    <dc:format>image/svg+xml</dc:format>
    <dc:creator>
     <cc:Agent>
      <dc:title>Matplotlib v3.10.7, https://matplotlib.org/</dc:title>
     </cc:Agent>
    </dc:creator>
   </cc:Work>
  </rdf:RDF>
 </metadata>
 <defs>
  <style type="text/css">*{stroke-linejoin: round; stroke-linecap: butt}</style>
 </defs>
 <g id="figure_1">
  <g id="patch_1">
   <path d="M 0 246.917594
L 406.531719 246.917594
L 406.531719 0
L 0 0
z
" style="fill: #ffffff"/>
  </g>
  <g id="axes_1">
   <g id="patch_2">
    <path d="M 42.211719 210.049625
L 399.331719 210.049625
L 399.331719 10.465625
L 42.211719 10.465625
z
" style="fill: #ffffff"/>
   </g>
   <g id="matplotlib.axis_1">
    <g id="xtick_1">
     <g id="line2d_1">
      <path d="M 91.94055 210.049625
L 91.94055 10.465625
" clip-path="url(#p4a12852191)" style="fill: none; stroke-dasharray: 0.5,0.825; stroke-dashoffset: 0; stroke: #b0b0b0; stroke-opacity: 0.5; stroke-width: 0.5"/>
     </g>
     <g id="line2d_2">
      <defs>
       <path id="mf9b007259a" d="M 0 0
L 0 3.5
" style="stroke: #000000; stroke-width: 0.8"/>
      </defs>
      <g>
       <use xlink:href="#mf9b007259a" x="91.94055" y="210.049625" style="stroke: #000000; stroke-width: 0.8"/>
      </g>
     </g>
     <g id="text_1">
      <!-- 25% -->
      <g transform="translate(84.81555 223.580875) scale(0.095 -0.095)">
       <defs>
        <path id="SimHei-32" d="M 300 250
Q 325 625 650 925
Q 975 1225 1475 1862
Q 1975 2500 2125 2850
Q 2275 3200 2237 3450
Q 2200 3700 2000 3862
Q 1800 4025 1537 4000
Q 1275 3975 1037 3800
Q 800 3625 675 3275
L 200 3350
Q 400 3925 712 4187
Q 1025 4450 1450 4475
Q 1700 4500 1900 4462
Q 2100 4425 2312 4287
Q 2525 4150 2662 3875
Q 2800 3600 2762 3212
Q 2725 2825 2375 2287
Q 2025 1750 1025 600
L 2825 600
L 2825 150
L 300 150
L 300 250
z
" transform="scale(0.015625)"/>
        <path id="SimHei-35" d="M 550 1325
Q 725 650 1150 575
Q 1575 500 1837 662
Q 2100 825 2212 1087
Q 2325 1350 2312 1675
Q 2300 2000 2137 2225
Q 1975 2450 1725 2525
Q 1475 2600 1162 2525
Q 850 2450 650 2175
L 225 2225
Q 275 2375 700 4375
L 2675 4375
L 2675 3925
L 1075 3925
Q 950 3250 825 2850
Q 1200 3025 1525 3012
Q 1850 3000 2150 2862
Q 2450 2725 2587 2487
Q 2725 2250 2787 2012
Q 2850 1775 2837 1500
Q 2825 1225 2725 937
Q 2625 650 2425 462
Q 2225 275 1937 162
Q 1650 50 1275 75
Q 900 100 562 350
Q 225 600 100 1200
L 550 1325
z
" transform="scale(0.015625)"/>
        <path id="SimHei-25" d="M 1400 3325
Q 1400 2600 1187 2400
Q 975 2200 775 2200
Q 575 2200 362 2400
Q 150 2600 150 3325
Q 150 4050 362 4250
Q 575 4450 775 4450
Q 975 4450 1187 4250
Q 1400 4050 1400 3325
z
M 2625 4375
L 700 75
L 500 150
L 2425 4450
L 2625 4375
z
M 2975 1200
Q 2975 475 2762 275
Q 2550 75 2350 75
Q 2150 75 1937 275
Q 1725 475 1725 1200
Q 1725 1925 1937 2125
Q 2150 2325 2350 2325
Q 2550 2325 2762 2125
Q 2975 1925 2975 1200
z
M 1000 3325
Q 1000 3775 950 3925
Q 900 4075 775 4075
Q 650 4075 600 3925
Q 550 3775 550 3325
Q 550 2875 600 2725
Q 650 2575 775 2575
Q 900 2575 950 2725
Q 1000 2875 1000 3325
z
M 2575 1200
Q 2575 1650 2525 1800
Q 2475 1950 2350 1950
Q 2225 1950 2175 1800
Q 2125 1650 2125 1200
Q 2125 750 2175 600
Q 2225 450 2350 450
Q 2475 450 2525 600
Q 2575 750 2575 1200
z
" transform="scale(0.015625)"/>
       </defs>
       <use xlink:href="#SimHei-32"/>
       <use xlink:href="#SimHei-35" transform="translate(50 0)"/>
       <use xlink:href="#SimHei-25" transform="translate(100 0)"/>
      </g>
     </g>
    </g>
    <g id="xtick_2">
     <g id="line2d_3">
      <path d="M 177.827996 210.049625
L 177.827996 10.465625
" clip-path="url(#p4a12852191)" style="fill: none; stroke-dasharray: 0.5,0.825; stroke-dashoffset: 0; stroke: #b0b0b0; stroke-opacity: 0.5; stroke-width: 0.5"/>
     </g>
     <g id="line2d_4">
      <g>
       <use xlink:href="#mf9b007259a" x="177.827996" y="210.049625" style="stroke: #000000; stroke-width: 0.8"/>
      </g>
     </g>
     <g id="text_2">
      <!-- 50% -->
      <g transform="translate(170.702996 223.580875) scale(0.095 -0.095)">
       <defs>
        <path id="SimHei-30" d="M 225 2537
Q 250 3200 412 3587
Q 575 3975 875 4225
Q 1175 4475 1612 4475
Q 2050 4475 2375 4112
Q 2700 3750 2800 3200
Q 2900 2650 2862 1937
Q 2825 1225 2612 775
Q 2400 325 1975 150
Q 1550 -25 1125 187
Q 700 400 525 750
Q 350 1100 275 1487
Q 200 1875 225 2537
z
M 750 2687
Q 675 2000 800 1462
Q 925 925 1212 700
Q 1500 475 1800 612
Q 2100 750 2237 1162
Q 2375 1575 2375 2062
Q 2375 2550 2337 2950
Q 2300 3350 2112 3675
Q 1925 4000 1612 4012
Q 1300 4025 1062 3700
Q 825 3375 750 2687
z
" transform="scale(0.015625)"/>
       </defs>
       <use xlink:href="#SimHei-35"/>
       <use xlink:href="#SimHei-30" transform="translate(50 0)"/>
       <use xlink:href="#SimHei-25" transform="translate(100 0)"/>
      </g>
     </g>
    </g>
    <g id="xtick_3">
     <g id="line2d_5">
      <path d="M 263.715442 210.049625
L 263.715442 10.465625
" clip-path="url(#p4a12852191)" style="fill: none; stroke-dasharray: 0.5,0.825; stroke-dashoffset: 0; stroke: #b0b0b0; stroke-opacity: 0.5; stroke-width: 0.5"/>
     </g>
     <g id="line2d_6">
      <g>
       <use xlink:href="#mf9b007259a" x="263.715442" y="210.049625" style="stroke: #000000; stroke-width: 0.8"/>
      </g>
     </g>
     <g id="text_3">
      <!-- 75% -->
      <g transform="translate(256.590442 223.580875) scale(0.095 -0.095)">
       <defs>
        <path id="SimHei-37" d="M 850 150
Q 1300 2050 2425 3925
L 275 3925
L 275 4375
L 2950 4375
L 2950 3950
Q 1775 2050 1400 150
L 850 150
z
" transform="scale(0.015625)"/>
       </defs>
       <use xlink:href="#SimHei-37"/>
       <use xlink:href="#SimHei-35" transform="translate(50 0)"/>
       <use xlink:href="#SimHei-25" transform="translate(100 0)"/>
      </g>
     </g>
    </g>
    <g id="xtick_4">
     <g id="line2d_7">
      <path d="M 349.602888 210.049625
L 349.602888 10.465625
" clip-path="url(#p4a12852191)" style="fill: none; stroke-dasharray: 0.5,0.825; stroke-dashoffset: 0; stroke: #b0b0b0; stroke-opacity: 0.5; stroke-width: 0.5"/>
     </g>
     <g id="line2d_8">
      <g>
       <use xlink:href="#mf9b007259a" x="349.602888" y="210.049625" style="stroke: #000000; stroke-width: 0.8"/>
      </g>
     </g>
     <g id="text_4">
      <!-- 干净边界 -->
      <g transform="translate(330.602888 224.768375) scale(0.095 -0.095)">
       <defs>
        <path id="SimHei-5e72" d="M 4625 4775
Q 5050 4775 5500 4800
L 5500 4300
Q 5050 4325 4625 4325
L 3475 4325
L 3475 2525
L 5225 2525
Q 5700 2525 6000 2550
L 6000 2050
Q 5700 2075 5225 2075
L 3475 2075
L 3475 325
Q 3475 -75 3500 -625
L 2925 -625
Q 2950 -100 2950 325
L 2950 2075
L 1225 2075
Q 775 2075 400 2050
L 400 2550
Q 775 2525 1225 2525
L 2950 2525
L 2950 4325
L 1925 4325
Q 1450 4325 925 4300
L 925 4800
Q 1450 4775 1800 4775
L 4625 4775
z
" transform="scale(0.015625)"/>
        <path id="SimHei-51c0" d="M 3425 5075
Q 3275 4900 3100 4625
L 4950 4625
Q 4725 4325 4250 3475
L 5525 3475
Q 5500 3150 5500 2450
Q 5825 2450 6150 2475
L 6150 2025
Q 5825 2050 5500 2050
Q 5500 1075 5525 1000
L 3875 1000
L 3875 -75
Q 3875 -375 3625 -475
Q 3375 -575 2775 -650
Q 2725 -350 2575 -75
Q 2975 -75 3175 -62
Q 3375 -50 3375 200
L 3375 1000
L 2725 1000
Q 2325 1000 1900 975
L 1900 1425
Q 2325 1400 2725 1400
L 3375 1400
L 3375 2050
L 2625 2050
Q 2225 2050 1700 2025
L 1700 2475
Q 2225 2450 2675 2450
L 3375 2450
L 3375 3075
L 3000 3075
Q 2675 3075 2250 3050
L 2250 3425
Q 2100 3225 1900 3000
Q 1700 3175 1475 3300
Q 1725 3525 2187 4150
Q 2650 4775 2825 5300
Q 3075 5200 3425 5075
z
M 1625 2025
Q 1000 775 675 100
Q 500 275 225 450
Q 525 875 800 1450
Q 1075 2025 1175 2325
Q 1400 2150 1625 2025
z
M 2325 3500
Q 2850 3475 3325 3475
L 3700 3475
Q 3900 3825 4100 4225
L 2850 4225
Q 2550 3775 2325 3500
z
M 5000 1400
L 5000 2050
L 3875 2050
L 3875 1400
L 5000 1400
z
M 700 4750
Q 1275 4150 1600 3725
Q 1325 3550 1175 3375
Q 900 3775 300 4425
Q 500 4575 700 4750
z
M 5000 2450
L 5000 3075
L 3875 3075
L 3875 2450
L 5000 2450
z
" transform="scale(0.015625)"/>
        <path id="SimHei-8fb9" d="M 3450 3950
Q 3450 4750 3425 5250
Q 3800 5175 4050 5175
Q 3975 4825 3950 3950
L 5725 3950
Q 5650 3525 5625 3100
L 5500 1150
Q 5475 725 5062 612
Q 4650 500 4300 400
Q 4275 725 4050 1050
Q 4650 1075 4837 1137
Q 5025 1200 5050 1450
L 5175 3500
L 3925 3500
Q 3825 2500 3525 1837
Q 3225 1175 2625 500
Q 2400 725 2075 900
Q 2625 1275 2987 1937
Q 3350 2600 3425 3500
Q 2825 3500 2275 3450
L 2275 3975
Q 2725 3950 3450 3950
z
M 1625 2900
Q 1600 2475 1600 2125
L 1600 675
Q 2225 50 3775 0
Q 5325 -50 6200 50
Q 5950 -150 5925 -550
Q 5125 -550 4350 -525
Q 3575 -500 2925 -387
Q 2275 -275 1850 75
Q 1425 425 1187 175
Q 950 -75 725 -550
Q 500 -325 225 -150
Q 875 350 1100 625
L 1100 2450
Q 650 2450 225 2425
L 225 2925
Q 725 2900 1150 2900
L 1625 2900
z
M 1150 5075
Q 1600 4200 1700 3900
Q 1450 3825 1175 3675
Q 1150 3925 650 4875
Q 925 4975 1150 5075
z
" transform="scale(0.015625)"/>
        <path id="SimHei-754c" d="M 5400 5075
Q 5375 4800 5375 4225
L 5375 3675
Q 5375 3350 5400 2875
L 975 2875
Q 1000 3350 1000 3700
L 1000 4225
Q 1000 4700 975 5075
L 5400 5075
z
M 3400 2450
Q 3875 2100 4700 1787
Q 5525 1475 6150 1425
Q 5925 1200 5800 925
Q 5175 1075 4575 1325
Q 4550 1175 4550 925
L 4550 150
Q 4550 -225 4575 -600
L 4025 -600
Q 4050 -250 4050 150
L 4050 825
Q 4050 1150 4025 1450
L 4325 1450
Q 3775 1650 3100 2200
Q 2700 1900 2075 1587
Q 1450 1275 625 1000
Q 525 1225 300 1425
Q 675 1500 1300 1725
Q 1925 1950 2387 2262
Q 2850 2575 3000 2800
Q 3250 2675 3525 2550
L 3400 2450
z
M 2400 1375
Q 2350 1200 2337 1000
Q 2325 800 2262 525
Q 2200 250 2000 -37
Q 1800 -325 1325 -700
Q 1150 -475 950 -350
Q 1350 -100 1562 137
Q 1775 375 1825 600
Q 1875 825 1887 987
Q 1900 1150 1900 1450
Q 2225 1400 2400 1375
z
M 4875 3225
L 4875 3800
L 3400 3800
L 3400 3225
L 4875 3225
z
M 4875 4150
L 4875 4725
L 3400 4725
L 3400 4150
L 4875 4150
z
M 2925 4150
L 2925 4725
L 1500 4725
L 1500 4150
L 2925 4150
z
M 2925 3225
L 2925 3800
L 1500 3800
L 1500 3225
L 2925 3225
z
" transform="scale(0.015625)"/>
       </defs>
       <use xlink:href="#SimHei-5e72"/>
       <use xlink:href="#SimHei-51c0" transform="translate(100 0)"/>
       <use xlink:href="#SimHei-8fb9" transform="translate(200 0)"/>
       <use xlink:href="#SimHei-754c" transform="translate(300 0)"/>
      </g>
     </g>
    </g>
    <g id="text_5">
     <!-- 打断注入位置（播放比例） -->
     <g transform="translate(157.771719 238.405094) scale(0.105 -0.105)">
      <defs>
       <path id="SimHei-6253" d="M 1900 1875
L 1900 175
Q 1900 -225 1712 -350
Q 1525 -475 850 -575
Q 800 -225 675 25
Q 1250 -25 1325 50
Q 1400 125 1400 325
L 1400 1700
Q 750 1475 475 1325
Q 400 1575 275 1850
Q 650 1925 1400 2150
L 1400 3425
Q 825 3425 400 3375
L 400 3875
Q 800 3850 1400 3850
Q 1400 4625 1375 5225
L 1925 5225
Q 1900 4650 1900 3850
Q 2475 3850 2875 3875
L 2875 3400
Q 2475 3425 1900 3425
L 1900 2325
Q 2300 2425 2775 2650
Q 2775 2400 2800 2175
L 1900 1875
z
M 5175 4550
Q 5725 4550 6100 4600
L 6100 4075
Q 5625 4100 4850 4100
L 4850 75
Q 4825 -350 4512 -450
Q 4200 -550 3725 -625
Q 3675 -300 3475 -50
Q 4075 -50 4200 25
Q 4325 100 4325 375
L 4325 4100
L 3625 4100
Q 3075 4100 2875 4075
L 2875 4600
Q 3400 4550 3350 4550
L 5175 4550
z
" transform="scale(0.015625)"/>
       <path id="SimHei-65ad" d="M 3800 4600
Q 4400 4600 4925 4687
Q 5450 4775 5700 4900
Q 5775 4700 6000 4375
Q 5750 4375 5337 4337
Q 4925 4300 4275 4250
L 4275 3050
L 5575 3050
Q 5775 3050 6075 3075
L 6075 2625
Q 5750 2650 5500 2650
L 5500 225
Q 5500 -200 5550 -550
L 5025 -550
Q 5075 -125 5075 300
L 5075 2650
L 4275 2650
Q 4275 2000 4225 1475
Q 4175 950 4075 537
Q 3975 125 3475 -600
Q 3275 -450 3050 -350
Q 3500 200 3650 725
Q 3800 1250 3825 1800
Q 3850 2350 3850 3250
Q 3850 4150 3800 4600
z
M 2600 5150
Q 2575 4875 2575 4400
L 2575 3225
Q 3050 3225 3450 3250
L 3450 2800
Q 3075 2850 2575 2850
L 2575 1450
Q 2575 1000 2600 675
L 2100 675
Q 2125 1400 2125 2225
Q 1850 1525 1450 1000
Q 1250 1175 1075 1300
Q 1700 2075 1925 2850
Q 1700 2850 1225 2825
L 1225 3250
Q 1575 3225 2125 3225
L 2125 4375
Q 2125 4875 2100 5150
L 2600 5150
z
M 1000 475
L 2550 475
Q 2950 475 3300 500
L 3300 50
Q 2950 75 2325 75
L 500 75
Q 525 450 525 950
L 525 3850
Q 525 4300 500 4650
L 1025 4650
Q 1000 4300 1000 3950
L 1000 475
z
M 2975 2550
Q 3275 2025 3625 1525
L 3225 1225
Q 3000 1725 2625 2325
Q 2750 2425 2975 2550
z
M 3625 4550
Q 3450 4350 3350 4087
Q 3250 3825 3125 3550
Q 2925 3650 2700 3725
Q 3000 4225 3125 4775
Q 3375 4650 3625 4550
z
M 1200 4675
Q 1450 4700 1675 4725
Q 1800 3950 1850 3675
Q 1675 3650 1400 3600
Q 1375 3875 1200 4675
z
" transform="scale(0.015625)"/>
       <path id="SimHei-6ce8" d="M 4675 4050
Q 5150 4050 5775 4075
L 5775 3600
Q 5100 3625 4700 3625
L 4200 3625
L 4200 2250
L 4675 2250
Q 5100 2250 5675 2275
L 5675 1800
Q 5125 1825 4675 1825
L 4200 1825
L 4200 0
L 4825 0
Q 5425 0 6075 25
L 6075 -450
Q 5425 -425 4850 -425
L 3025 -425
Q 2375 -425 1950 -450
L 1950 25
Q 2350 0 3050 0
L 3700 0
L 3700 1825
L 3300 1825
Q 2825 1825 2400 1800
L 2400 2275
Q 2825 2250 3325 2250
L 3700 2250
L 3700 3625
L 3225 3625
Q 2725 3625 2225 3600
L 2225 4075
Q 2725 4050 3250 4050
L 4675 4050
z
M 1950 1425
Q 1675 975 1337 287
Q 1000 -400 875 -675
Q 625 -425 325 -250
Q 600 0 950 612
Q 1300 1225 1575 1800
Q 1750 1575 1950 1425
z
M 725 3350
Q 1300 2975 1750 2675
Q 1600 2500 1425 2225
Q 950 2650 425 2950
Q 575 3100 725 3350
z
M 1025 5025
Q 1625 4575 1950 4225
Q 1725 4050 1600 3850
Q 1175 4350 675 4650
Q 850 4825 1025 5025
z
M 3225 4950
Q 3400 5075 3575 5250
Q 3900 4975 4375 4450
Q 4175 4300 3975 4125
Q 3550 4650 3225 4950
z
" transform="scale(0.015625)"/>
       <path id="SimHei-5165" d="M 5650 -375
Q 5050 25 4500 650
Q 3950 1275 3275 3050
Q 2575 975 675 -475
Q 575 -225 225 50
Q 1850 825 2975 3525
Q 2900 3725 2525 4125
Q 2150 4525 1750 4675
Q 2025 4900 2175 5125
Q 2800 4650 3175 4225
Q 3550 3800 4125 2375
Q 4700 950 6125 250
Q 5775 0 5650 -375
z
" transform="scale(0.015625)"/>
       <path id="SimHei-4f4d" d="M 2125 4925
Q 1950 4750 1625 3750
L 1625 575
Q 1625 -225 1650 -650
L 1100 -650
Q 1150 -200 1150 550
L 1150 2950
Q 775 2275 550 1950
Q 375 2275 200 2425
Q 525 2775 912 3575
Q 1300 4375 1500 5200
Q 1825 5000 2125 4925
z
M 5375 3025
Q 5275 2875 5100 2250
Q 4925 1625 4600 300
L 5450 300
Q 5925 300 6100 325
L 6100 -175
Q 5875 -150 5450 -150
L 2900 -150
Q 2275 -150 2050 -175
L 2050 325
Q 2275 300 2850 300
L 4075 300
Q 4400 1400 4700 3175
Q 5100 3075 5375 3025
z
M 5250 4025
Q 5700 4025 5925 4050
L 5925 3575
Q 5700 3600 5225 3600
L 3000 3600
Q 2650 3600 2275 3575
L 2275 4050
Q 2675 4025 3000 4025
L 5250 4025
z
M 3050 3050
Q 3500 1775 3750 725
Q 3450 625 3250 550
Q 3125 1125 2962 1675
Q 2800 2225 2550 2875
Q 2800 2925 3050 3050
z
M 3875 5200
Q 4175 4675 4400 4300
Q 4200 4250 3875 4075
Q 3700 4525 3400 4950
Q 3650 5050 3875 5200
z
" transform="scale(0.015625)"/>
       <path id="SimHei-7f6e" d="M 3600 3650
Q 3525 3475 3475 3325
L 4750 3325
Q 5100 3325 5675 3350
L 5675 2925
Q 5125 2950 4750 2950
L 3400 2950
L 3350 2600
L 5000 2600
Q 4975 1975 4975 1550
L 4975 -50
Q 5575 -50 6025 -25
L 6025 -400
Q 5475 -375 5000 -375
L 1400 -375
Q 900 -375 400 -400
L 400 -25
Q 925 -50 1450 -50
L 1450 1550
Q 1450 1975 1425 2600
L 2875 2600
L 2925 2950
L 1600 2950
Q 1150 2950 650 2925
L 650 3350
Q 1150 3325 1600 3325
L 2975 3325
Q 3000 3525 3000 3700
Q 3250 3650 3600 3650
z
M 5575 4950
Q 5550 4600 5550 4300
Q 5550 4000 5575 3775
L 900 3775
Q 925 4075 925 4325
Q 925 4600 900 4950
L 5575 4950
z
M 4575 1900
L 4575 2250
L 1850 2250
L 1850 1900
L 4575 1900
z
M 4575 1250
L 4575 1575
L 1850 1575
L 1850 1250
L 4575 1250
z
M 4575 -50
L 4575 275
L 1850 275
L 1850 -50
L 4575 -50
z
M 4575 625
L 4575 875
L 1850 875
L 1850 625
L 4575 625
z
M 3700 4100
L 3700 4625
L 2700 4625
L 2700 4100
L 3700 4100
z
M 5075 4100
L 5075 4625
L 4100 4625
L 4100 4100
L 5075 4100
z
M 2350 4100
L 2350 4625
L 1400 4625
L 1400 4100
L 2350 4100
z
" transform="scale(0.015625)"/>
       <path id="SimHei-ff08" d="M 5425 5100
L 5700 4775
Q 4275 3725 4325 2350
Q 4350 1025 5675 50
L 5400 -275
Q 3875 825 3925 2500
Q 3925 3875 5425 5100
z
" transform="scale(0.015625)"/>
       <path id="SimHei-64ad" d="M 5775 4600
Q 5325 4550 4300 4475
L 4300 3475
L 4725 3475
Q 4850 3800 5050 4475
Q 5250 4350 5575 4225
Q 5400 4000 5312 3812
Q 5225 3625 5150 3475
L 5400 3475
Q 5725 3475 6100 3500
L 6100 3075
Q 5725 3100 5425 3100
L 4850 3100
Q 5325 2425 6200 2100
Q 5975 1875 5925 1625
Q 5600 1750 5525 1825
L 5525 300
Q 5525 -50 5550 -600
L 5075 -600
L 5075 -225
L 3050 -225
L 3050 -600
L 2575 -600
Q 2600 -100 2600 250
L 2600 1725
Q 2400 1600 2225 1475
Q 2050 1725 1850 1875
Q 2825 2375 3300 3100
Q 2725 3100 2225 3075
L 2225 3500
Q 2650 3475 2850 3475
L 3000 3475
Q 2800 3925 2625 4100
Q 2700 4150 3025 4325
Q 3075 4225 3425 3725
Q 3300 3650 3050 3475
L 3825 3475
L 3825 4425
Q 3000 4400 2525 4325
Q 2425 4600 2300 4800
Q 3050 4775 4025 4875
Q 5000 4975 5425 5125
Q 5550 4825 5775 4600
z
M 1175 4550
Q 1175 4900 1150 5200
L 1650 5200
Q 1625 5000 1600 4650
L 1600 3825
Q 1900 3825 2125 3850
L 2125 3400
Q 1850 3425 1600 3425
L 1600 2425
L 2100 2675
Q 2100 2475 2150 2200
Q 1900 2100 1600 1950
L 1600 50
Q 1600 -350 1362 -450
Q 1125 -550 700 -600
Q 650 -350 475 -75
Q 925 -75 1050 -37
Q 1175 0 1175 275
L 1175 1800
Q 1000 1750 425 1400
L 225 1900
Q 525 2000 1175 2275
L 1175 3425
Q 600 3425 300 3375
L 300 3850
Q 750 3825 1175 3825
L 1175 4550
z
M 5300 1950
Q 4750 2350 4375 3100
L 4325 3100
Q 4325 2550 4350 2050
L 3825 2050
Q 3850 2550 3850 3075
Q 3475 2525 2825 1950
L 5300 1950
z
M 3850 150
L 3850 675
L 3050 675
L 3050 150
L 3850 150
z
M 5075 150
L 5075 675
L 4275 675
L 4275 150
L 5075 150
z
M 3850 1075
L 3850 1575
L 3050 1575
L 3050 1075
L 3850 1075
z
M 5075 1075
L 5075 1575
L 4275 1575
L 4275 1075
L 5075 1075
z
" transform="scale(0.015625)"/>
       <path id="SimHei-653e" d="M 4250 700
Q 3825 1600 3575 2675
Q 3450 2450 3350 2275
Q 3250 2450 2975 2650
Q 3250 2975 3525 3712
Q 3800 4450 3950 5250
Q 4275 5100 4575 5025
Q 4425 4825 4300 4512
Q 4175 4200 4075 3900
L 5250 3900
Q 5625 3900 6050 3925
L 6050 3450
Q 5675 3475 5475 3475
Q 5425 2625 5275 1925
Q 5125 1225 4850 675
Q 5325 100 6150 -150
Q 5950 -400 5875 -650
Q 5075 -350 4550 350
Q 4000 -200 3175 -650
Q 3075 -375 2825 -200
Q 3675 75 4250 700
z
M 1650 100
Q 2050 75 2225 137
Q 2400 200 2437 725
Q 2475 1250 2500 2250
L 1600 2250
Q 1550 1325 1325 662
Q 1100 0 650 -575
Q 425 -375 200 -250
Q 600 175 762 562
Q 925 950 1050 1487
Q 1175 2025 1150 3500
Q 775 3500 325 3475
L 325 3950
Q 775 3925 1050 3925
L 2400 3925
Q 2775 3925 3125 3950
L 3125 3475
Q 2775 3500 2400 3500
L 1625 3500
L 1625 2650
L 2950 2650
Q 2900 1175 2862 675
Q 2825 175 2762 -25
Q 2700 -225 2487 -312
Q 2275 -400 1850 -450
Q 1800 -175 1650 100
z
M 3975 3075
Q 4225 1825 4550 1200
Q 4875 1925 5000 3475
L 3925 3475
L 3700 3025
L 3975 3075
z
M 1575 5275
Q 1850 4775 2075 4300
Q 1825 4200 1600 4075
Q 1375 4650 1125 5025
Q 1350 5125 1575 5275
z
" transform="scale(0.015625)"/>
       <path id="SimHei-6bd4" d="M 3775 5100
Q 3750 4575 3750 4100
L 3750 3050
Q 4925 3600 5475 4175
Q 5675 3900 5900 3675
Q 5600 3500 5037 3187
Q 4475 2875 3750 2550
L 3750 450
Q 3750 100 4050 100
L 5000 100
Q 5175 100 5262 250
Q 5350 400 5450 900
Q 5650 775 6025 675
Q 5850 0 5650 -175
Q 5450 -350 5225 -350
L 3900 -350
Q 3250 -350 3250 275
L 3250 4000
Q 3250 4550 3225 5100
L 3775 5100
z
M 1275 4975
Q 1250 4575 1250 4000
L 1250 3150
L 1850 3150
Q 2325 3150 2875 3175
L 2875 2650
Q 2325 2675 1850 2675
L 1250 2675
L 1250 475
Q 1650 650 1962 812
Q 2275 975 2850 1275
Q 2900 950 2950 750
Q 2375 475 1762 175
Q 1150 -125 925 -325
Q 750 -100 575 200
Q 700 300 750 600
L 750 3950
Q 750 4550 725 4975
L 1275 4975
z
" transform="scale(0.015625)"/>
       <path id="SimHei-4f8b" d="M 3450 4725
Q 3825 4725 4100 4750
L 4100 4300
Q 3825 4325 3500 4325
L 3150 4325
Q 3125 4025 3025 3350
L 4050 3350
Q 4000 2050 3612 1050
Q 3225 50 2300 -600
Q 2200 -400 1900 -150
Q 2750 250 3200 1325
Q 2975 1525 2550 1800
Q 2700 2000 2825 2175
Q 3200 1875 3350 1775
Q 3500 2250 3575 2950
L 2925 2950
Q 2800 2425 2225 1575
Q 2025 1775 1775 1925
Q 2125 2275 2375 2837
Q 2625 3400 2675 4325
Q 2300 4325 2150 4300
L 2150 4750
Q 2400 4725 2800 4725
L 3450 4725
z
M 2050 4975
Q 1875 4775 1550 3850
L 1550 475
Q 1550 -25 1575 -600
L 1075 -600
Q 1100 -75 1100 425
L 1100 3000
Q 950 2700 650 2250
Q 550 2375 200 2625
Q 525 2925 937 3762
Q 1350 4600 1450 5200
Q 1650 5075 2050 4975
z
M 5950 5075
Q 5900 4775 5900 4300
L 5900 250
Q 5900 -275 5700 -400
Q 5500 -525 4850 -575
Q 4825 -300 4650 50
Q 5175 0 5300 25
Q 5425 50 5450 300
L 5450 4275
Q 5450 4750 5400 5075
L 5950 5075
z
M 4925 4225
Q 4875 3875 4875 3250
L 4875 1800
Q 4875 1200 4900 925
L 4375 925
Q 4425 1200 4425 1775
L 4425 3275
Q 4400 3850 4375 4225
L 4925 4225
z
" transform="scale(0.015625)"/>
       <path id="SimHei-ff09" d="M 1000 5100
Q 2500 3875 2500 2500
Q 2550 825 1025 -275
L 750 50
Q 2075 1025 2100 2350
Q 2150 3725 725 4775
L 1000 5100
z
" transform="scale(0.015625)"/>
      </defs>
      <use xlink:href="#SimHei-6253"/>
      <use xlink:href="#SimHei-65ad" transform="translate(100 0)"/>
      <use xlink:href="#SimHei-6ce8" transform="translate(200 0)"/>
      <use xlink:href="#SimHei-5165" transform="translate(300 0)"/>
      <use xlink:href="#SimHei-4f4d" transform="translate(400 0)"/>
      <use xlink:href="#SimHei-7f6e" transform="translate(500 0)"/>
      <use xlink:href="#SimHei-ff08" transform="translate(600 0)"/>
      <use xlink:href="#SimHei-64ad" transform="translate(700 0)"/>
      <use xlink:href="#SimHei-653e" transform="translate(800 0)"/>
      <use xlink:href="#SimHei-6bd4" transform="translate(900 0)"/>
      <use xlink:href="#SimHei-4f8b" transform="translate(1000 0)"/>
      <use xlink:href="#SimHei-ff09" transform="translate(1100 0)"/>
     </g>
    </g>
   </g>
   <g id="matplotlib.axis_2">
    <g id="ytick_1">
     <g id="line2d_9">
      <path d="M 42.211719 210.049625
L 399.331719 210.049625
" clip-path="url(#p4a12852191)" style="fill: none; stroke-dasharray: 0.5,0.825; stroke-dashoffset: 0; stroke: #b0b0b0; stroke-opacity: 0.5; stroke-width: 0.5"/>
     </g>
     <g id="line2d_10">
      <defs>
       <path id="ma30386d178" d="M 0 0
L -3.5 0
" style="stroke: #000000; stroke-width: 0.8"/>
      </defs>
      <g>
       <use xlink:href="#ma30386d178" x="42.211719" y="210.049625" style="stroke: #000000; stroke-width: 0.8"/>
      </g>
     </g>
     <g id="text_6">
      <!-- 0 -->
      <g transform="translate(30.461719 213.31525) scale(0.095 -0.095)">
       <use xlink:href="#SimHei-30"/>
      </g>
     </g>
    </g>
    <g id="ytick_2">
     <g id="line2d_11">
      <path d="M 42.211719 170.132825
L 399.331719 170.132825
" clip-path="url(#p4a12852191)" style="fill: none; stroke-dasharray: 0.5,0.825; stroke-dashoffset: 0; stroke: #b0b0b0; stroke-opacity: 0.5; stroke-width: 0.5"/>
     </g>
     <g id="line2d_12">
      <g>
       <use xlink:href="#ma30386d178" x="42.211719" y="170.132825" style="stroke: #000000; stroke-width: 0.8"/>
      </g>
     </g>
     <g id="text_7">
      <!-- 20 -->
      <g transform="translate(25.711719 173.39845) scale(0.095 -0.095)">
       <use xlink:href="#SimHei-32"/>
       <use xlink:href="#SimHei-30" transform="translate(50 0)"/>
      </g>
     </g>
    </g>
    <g id="ytick_3">
     <g id="line2d_13">
      <path d="M 42.211719 130.216025
L 399.331719 130.216025
" clip-path="url(#p4a12852191)" style="fill: none; stroke-dasharray: 0.5,0.825; stroke-dashoffset: 0; stroke: #b0b0b0; stroke-opacity: 0.5; stroke-width: 0.5"/>
     </g>
     <g id="line2d_14">
      <g>
       <use xlink:href="#ma30386d178" x="42.211719" y="130.216025" style="stroke: #000000; stroke-width: 0.8"/>
      </g>
     </g>
     <g id="text_8">
      <!-- 40 -->
      <g transform="translate(25.711719 133.48165) scale(0.095 -0.095)">
       <defs>
        <path id="SimHei-34" d="M 2000 1100
L 75 1100
L 75 1525
L 2100 4450
L 2475 4450
L 2475 1525
L 3075 1525
L 3075 1100
L 2475 1100
L 2475 150
L 2000 150
L 2000 1100
z
M 2000 1525
L 2000 3500
L 600 1525
L 2000 1525
z
" transform="scale(0.015625)"/>
       </defs>
       <use xlink:href="#SimHei-34"/>
       <use xlink:href="#SimHei-30" transform="translate(50 0)"/>
      </g>
     </g>
    </g>
    <g id="ytick_4">
     <g id="line2d_15">
      <path d="M 42.211719 90.299225
L 399.331719 90.299225
" clip-path="url(#p4a12852191)" style="fill: none; stroke-dasharray: 0.5,0.825; stroke-dashoffset: 0; stroke: #b0b0b0; stroke-opacity: 0.5; stroke-width: 0.5"/>
     </g>
     <g id="line2d_16">
      <g>
       <use xlink:href="#ma30386d178" x="42.211719" y="90.299225" style="stroke: #000000; stroke-width: 0.8"/>
      </g>
     </g>
     <g id="text_9">
      <!-- 60 -->
      <g transform="translate(25.711719 93.56485) scale(0.095 -0.095)">
       <defs>
        <path id="SimHei-36" d="M 250 1612
Q 275 1975 387 2225
Q 500 2475 725 2850
L 1750 4450
L 2325 4450
L 1275 2800
Q 1950 2975 2350 2750
Q 2750 2525 2887 2237
Q 3025 1950 3037 1612
Q 3050 1275 2937 950
Q 2825 625 2537 362
Q 2250 100 1737 75
Q 1225 50 862 262
Q 500 475 362 862
Q 225 1250 250 1612
z
M 1025 787
Q 1250 550 1625 525
Q 2000 500 2250 775
Q 2500 1050 2500 1575
Q 2500 2100 2187 2300
Q 1875 2500 1487 2450
Q 1100 2400 925 2075
Q 750 1750 775 1387
Q 800 1025 1025 787
z
" transform="scale(0.015625)"/>
       </defs>
       <use xlink:href="#SimHei-36"/>
       <use xlink:href="#SimHei-30" transform="translate(50 0)"/>
      </g>
     </g>
    </g>
    <g id="ytick_5">
     <g id="line2d_17">
      <path d="M 42.211719 50.382425
L 399.331719 50.382425
" clip-path="url(#p4a12852191)" style="fill: none; stroke-dasharray: 0.5,0.825; stroke-dashoffset: 0; stroke: #b0b0b0; stroke-opacity: 0.5; stroke-width: 0.5"/>
     </g>
     <g id="line2d_18">
      <g>
       <use xlink:href="#ma30386d178" x="42.211719" y="50.382425" style="stroke: #000000; stroke-width: 0.8"/>
      </g>
     </g>
     <g id="text_10">
      <!-- 80 -->
      <g transform="translate(25.711719 53.64805) scale(0.095 -0.095)">
       <defs>
        <path id="SimHei-38" d="M 175 1375
Q 175 1675 325 1962
Q 475 2250 825 2425
Q 525 2600 425 2812
Q 325 3025 312 3300
Q 300 3575 387 3775
Q 475 3975 650 4150
Q 825 4325 1037 4387
Q 1250 4450 1500 4450
Q 1750 4450 1950 4400
Q 2150 4350 2375 4187
Q 2600 4025 2700 3725
Q 2800 3425 2687 3025
Q 2575 2625 2100 2400
Q 2525 2275 2700 2012
Q 2875 1750 2875 1375
Q 2875 1000 2762 775
Q 2650 550 2512 400
Q 2375 250 2137 162
Q 1900 75 1537 75
Q 1175 75 912 162
Q 650 250 475 425
Q 300 600 237 837
Q 175 1075 175 1375
z
M 687 1400
Q 675 1100 787 875
Q 900 650 1200 587
Q 1500 525 1825 600
Q 2150 675 2275 950
Q 2400 1225 2362 1500
Q 2325 1775 2050 1962
Q 1775 2150 1450 2125
Q 1125 2100 912 1900
Q 700 1700 687 1400
z
M 775 3350
Q 775 3100 950 2875
Q 1125 2650 1500 2650
Q 1875 2650 2062 2875
Q 2250 3100 2237 3412
Q 2225 3725 2012 3875
Q 1800 4025 1437 4000
Q 1075 3975 925 3787
Q 775 3600 775 3350
z
" transform="scale(0.015625)"/>
       </defs>
       <use xlink:href="#SimHei-38"/>
       <use xlink:href="#SimHei-30" transform="translate(50 0)"/>
      </g>
     </g>
    </g>
    <g id="ytick_6">
     <g id="line2d_19">
      <path d="M 42.211719 10.465625
L 399.331719 10.465625
" clip-path="url(#p4a12852191)" style="fill: none; stroke-dasharray: 0.5,0.825; stroke-dashoffset: 0; stroke: #b0b0b0; stroke-opacity: 0.5; stroke-width: 0.5"/>
     </g>
     <g id="line2d_20">
      <g>
       <use xlink:href="#ma30386d178" x="42.211719" y="10.465625" style="stroke: #000000; stroke-width: 0.8"/>
      </g>
     </g>
     <g id="text_11">
      <!-- 100 -->
      <g transform="translate(20.961719 13.73125) scale(0.095 -0.095)">
       <defs>
        <path id="SimHei-31" d="M 1400 3600
Q 1075 3275 575 2975
L 575 3450
Q 1200 3875 1600 4450
L 1900 4450
L 1900 150
L 1400 150
L 1400 3600
z
" transform="scale(0.015625)"/>
       </defs>
       <use xlink:href="#SimHei-31"/>
       <use xlink:href="#SimHei-30" transform="translate(50 0)"/>
       <use xlink:href="#SimHei-30" transform="translate(100 0)"/>
      </g>
     </g>
    </g>
    <g id="text_12">
     <!-- 未听内容引用率（%） -->
     <g transform="translate(15.649219 160.132625) rotate(-90) scale(0.105 -0.105)">
      <defs>
       <path id="SimHei-672a" d="M 2875 4150
Q 2875 4900 2850 5225
L 3400 5225
Q 3375 4925 3375 4150
L 4475 4150
Q 4950 4150 5375 4175
L 5375 3725
Q 4950 3750 4475 3750
L 3375 3750
L 3375 2750
L 4850 2750
Q 5400 2750 5875 2775
L 5875 2325
Q 5400 2350 4875 2350
L 3675 2350
Q 4125 1675 4662 1187
Q 5200 700 6175 425
Q 5850 275 5725 -100
Q 5050 150 4462 650
Q 3875 1150 3375 2050
L 3375 300
Q 3375 -175 3400 -575
L 2825 -575
Q 2875 -175 2875 300
L 2875 2125
Q 2275 1150 1700 650
Q 1125 150 675 -150
Q 575 75 225 300
Q 650 450 1312 1000
Q 1975 1550 2475 2350
L 1225 2350
Q 675 2350 375 2325
L 375 2775
Q 750 2750 1275 2750
L 2875 2750
L 2875 3750
L 1825 3750
Q 1225 3750 850 3725
L 850 4175
Q 1225 4150 1775 4150
L 2875 4150
z
" transform="scale(0.015625)"/>
       <path id="SimHei-542c" d="M 2450 4700
Q 2425 4175 2425 3650
L 2425 1500
Q 2425 975 2450 775
L 1925 775
L 1925 1200
L 1025 1200
L 1025 550
L 525 550
Q 525 675 550 1150
L 550 3650
Q 550 4175 525 4700
L 2450 4700
z
M 5925 4600
Q 5450 4550 4900 4500
Q 4350 4450 3525 4425
L 3525 3125
L 5275 3125
Q 5700 3125 6100 3150
L 6100 2700
Q 5650 2725 5100 2725
L 5100 225
Q 5100 -225 5125 -600
L 4600 -600
Q 4625 -175 4625 225
L 4625 2725
L 3525 2725
Q 3550 1725 3300 925
Q 3050 125 2350 -625
Q 2175 -400 1875 -300
Q 2325 125 2575 550
Q 2825 975 2925 1425
Q 3025 1875 3050 2725
Q 3075 3575 3050 4800
Q 3475 4800 4375 4887
Q 5275 4975 5625 5150
Q 5775 4725 5925 4600
z
M 1925 1600
L 1925 4275
L 1025 4275
L 1025 1600
L 1925 1600
z
" transform="scale(0.015625)"/>
       <path id="SimHei-5185" d="M 1425 1300
Q 2175 1825 2537 2375
Q 2900 2925 2925 3750
L 1225 3750
L 1225 -500
L 650 -500
Q 700 0 700 350
L 700 3125
Q 700 3625 675 4175
L 2950 4175
Q 2950 4850 2925 5175
Q 3325 5150 3550 5150
Q 3425 4825 3425 4175
L 5775 4175
Q 5725 3650 5725 3125
L 5725 75
Q 5725 -300 5425 -387
Q 5125 -475 4600 -550
Q 4525 -300 4250 0
Q 4850 0 5025 37
Q 5200 75 5200 275
L 5200 3750
L 3400 3750
Q 3400 3300 3325 2875
Q 3550 2700 4125 2262
Q 4700 1825 4950 1575
Q 4675 1350 4525 1175
Q 4100 1675 3175 2425
Q 2725 1650 2000 975
Q 1700 1225 1425 1300
z
" transform="scale(0.015625)"/>
       <path id="SimHei-5bb9" d="M 3350 2725
Q 4025 2150 4687 1850
Q 5350 1550 6100 1425
Q 5875 1250 5800 950
Q 5325 1075 4850 1275
Q 4850 -200 4875 -575
L 4400 -575
L 4400 -225
L 2050 -225
L 2050 -650
L 1575 -650
Q 1600 -325 1600 1275
Q 1125 1050 550 825
Q 450 1025 225 1250
Q 1325 1500 2137 2137
Q 2950 2775 3125 3275
Q 3375 3125 3600 3025
L 3350 2725
z
M 5750 4350
Q 5725 4125 5725 3875
Q 5725 3625 5750 3400
L 5250 3400
L 5250 4000
L 1200 4000
L 1200 3375
L 700 3375
Q 725 3650 725 3875
Q 725 4125 700 4350
L 5750 4350
z
M 4400 150
L 4400 1025
L 2050 1025
L 2050 150
L 4400 150
z
M 4625 1400
Q 3875 1700 3100 2425
Q 2525 1850 1750 1400
L 4625 1400
z
M 4000 3725
Q 5175 3075 5550 2850
Q 5375 2650 5250 2450
Q 4400 3025 3725 3375
Q 3925 3575 4000 3725
z
M 775 2775
Q 1875 3225 2325 3700
Q 2400 3575 2650 3325
Q 1725 2700 1100 2425
Q 975 2625 775 2775
z
M 2650 5025
Q 2850 5125 3125 5300
Q 3400 4950 3575 4600
Q 3225 4475 3075 4375
Q 3050 4475 2650 5025
z
" transform="scale(0.015625)"/>
       <path id="SimHei-5f15" d="M 3475 4825
Q 3450 4350 3450 3925
Q 3450 3500 3475 3050
L 1400 3050
L 1350 2075
L 3525 2075
Q 3300 150 3225 -100
Q 3150 -350 2837 -462
Q 2525 -575 1600 -625
Q 1575 -350 1400 -25
Q 2275 -50 2487 0
Q 2700 50 2775 300
L 2950 1675
L 825 1675
Q 850 2075 875 2487
Q 900 2900 900 3450
L 2950 3450
L 2950 4400
L 1925 4400
Q 1350 4400 800 4375
L 800 4850
Q 1350 4825 1750 4825
L 3475 4825
z
M 5450 5075
Q 5425 4625 5425 4175
L 5425 600
Q 5425 50 5450 -550
L 4900 -550
Q 4925 100 4925 600
L 4925 4200
Q 4925 4625 4900 5075
L 5450 5075
z
" transform="scale(0.015625)"/>
       <path id="SimHei-7528" d="M 350 -300
Q 650 125 812 600
Q 975 1075 1012 1550
Q 1050 2025 1050 3150
Q 1050 4275 1025 4950
L 5500 4950
Q 5475 4225 5475 3650
L 5475 375
Q 5475 -150 5175 -275
Q 4875 -400 4475 -450
Q 4425 -75 4300 125
Q 4800 100 4887 162
Q 4975 225 4975 400
L 4975 1650
L 3450 1650
L 3450 675
Q 3450 125 3475 -325
L 2925 -325
Q 2950 100 2950 650
L 2950 1650
L 1525 1650
Q 1425 575 850 -525
Q 575 -350 350 -300
z
M 4975 3475
L 4975 4550
L 3450 4550
L 3450 3475
L 4975 3475
z
M 4975 2050
L 4975 3100
L 3450 3100
L 3450 2050
L 4975 2050
z
M 2950 3475
L 2950 4550
L 1525 4550
L 1525 3475
L 2950 3475
z
M 2950 2050
L 2950 3100
L 1525 3100
L 1525 2050
L 2950 2050
z
" transform="scale(0.015625)"/>
       <path id="SimHei-7387" d="M 3325 5150
Q 3425 4900 3550 4525
L 4800 4525
Q 5250 4525 5800 4550
L 5800 4125
Q 5250 4175 4775 4175
L 2800 4175
Q 2975 4050 3300 3900
Q 3075 3750 2875 3537
Q 2675 3325 2475 3125
L 3275 3125
Q 3575 3425 3775 3775
Q 4000 3600 4275 3425
Q 3950 3250 3600 2875
Q 3250 2500 2625 2000
L 3850 2100
Q 3725 2250 3600 2425
Q 3750 2475 4000 2650
Q 4250 2350 4700 1700
Q 4475 1625 4225 1450
Q 4175 1600 4025 1775
Q 3700 1750 3425 1750
L 3425 1050
L 5150 1050
Q 5675 1050 6100 1075
L 6100 650
Q 5700 675 5125 675
L 3425 675
L 3425 175
Q 3425 -300 3450 -625
L 2900 -625
Q 2925 -300 2925 175
L 2925 675
L 1325 675
Q 825 675 325 650
L 325 1075
Q 825 1050 1350 1050
L 2925 1050
L 2925 1700
Q 2700 1675 2475 1637
Q 2250 1600 2025 1525
Q 1950 1775 1850 2000
Q 2075 2025 2325 2200
Q 2575 2375 2975 2800
Q 2300 2725 2025 2625
Q 1975 2875 1850 3175
Q 2075 3175 2325 3487
Q 2575 3800 2750 4175
L 1700 4175
Q 1150 4175 650 4125
L 650 4550
Q 1150 4525 1550 4525
L 2975 4525
Q 2900 4825 2800 5025
Q 3025 5075 3325 5150
z
M 1625 2575
Q 1725 2400 1825 2200
Q 1575 2050 1325 1862
Q 1075 1675 800 1425
Q 625 1675 475 1875
Q 800 2025 1100 2212
Q 1400 2400 1625 2575
z
M 4850 2650
Q 5125 2475 5337 2337
Q 5550 2200 5875 1950
Q 5675 1800 5500 1600
Q 5300 1775 5062 1975
Q 4825 2175 4575 2325
Q 4725 2475 4850 2650
z
M 5725 3525
Q 5550 3450 5300 3262
Q 5050 3075 4800 2825
Q 4625 3050 4475 3175
Q 4700 3325 4875 3487
Q 5050 3650 5300 3925
Q 5525 3700 5725 3525
z
M 1050 3850
Q 1425 3600 1775 3275
Q 1575 3100 1425 2925
Q 1075 3300 675 3525
Q 875 3700 1050 3850
z
" transform="scale(0.015625)"/>
      </defs>
      <use xlink:href="#SimHei-672a"/>
      <use xlink:href="#SimHei-542c" transform="translate(100 0)"/>
      <use xlink:href="#SimHei-5185" transform="translate(200 0)"/>
      <use xlink:href="#SimHei-5bb9" transform="translate(300 0)"/>
      <use xlink:href="#SimHei-5f15" transform="translate(400 0)"/>
      <use xlink:href="#SimHei-7528" transform="translate(500 0)"/>
      <use xlink:href="#SimHei-7387" transform="translate(600 0)"/>
      <use xlink:href="#SimHei-ff08" transform="translate(700 0)"/>
      <use xlink:href="#SimHei-25" transform="translate(800 0)"/>
      <use xlink:href="#SimHei-ff09" transform="translate(850 0)"/>
     </g>
    </g>
   </g>
   <g id="patch_3">
    <path d="M 58.444446 210.049625
L 80.775182 210.049625
L 80.775182 40.403225
L 58.444446 40.403225
z
" clip-path="url(#p4a12852191)" style="fill: #56b4e9; stroke: #000000; stroke-width: 0.6; stroke-linejoin: miter"/>
   </g>
   <g id="patch_4">
    <path d="M 144.331892 210.049625
L 166.662628 210.049625
L 166.662628 116.245145
L 144.331892 116.245145
z
" clip-path="url(#p4a12852191)" style="fill: #56b4e9; stroke: #000000; stroke-width: 0.6; stroke-linejoin: miter"/>
   </g>
   <g id="patch_5">
    <path d="M 230.219338 210.049625
L 252.550074 210.049625
L 252.550074 168.136985
L 230.219338 168.136985
z
" clip-path="url(#p4a12852191)" style="fill: #56b4e9; stroke: #000000; stroke-width: 0.6; stroke-linejoin: miter"/>
   </g>
   <g id="patch_6">
    <path d="M 316.106784 210.049625
L 338.43752 210.049625
L 338.43752 114.249305
L 316.106784 114.249305
z
" clip-path="url(#p4a12852191)" style="fill: #56b4e9; stroke: #000000; stroke-width: 0.6; stroke-linejoin: miter"/>
   </g>
   <g id="patch_7">
    <path d="M 80.775182 210.049625
L 103.105918 210.049625
L 103.105918 202.066265
L 80.775182 202.066265
z
" clip-path="url(#p4a12852191)" style="fill: #e69f00; stroke: #000000; stroke-width: 0.6; stroke-linejoin: miter"/>
   </g>
   <g id="patch_8">
    <path d="M 166.662628 210.049625
L 188.993364 210.049625
L 188.993364 208.053785
L 166.662628 208.053785
z
" clip-path="url(#p4a12852191)" style="fill: #e69f00; stroke: #000000; stroke-width: 0.6; stroke-linejoin: miter"/>
   </g>
   <g id="patch_9">
    <path d="M 252.550074 210.049625
L 274.88081 210.049625
L 274.88081 206.057945
L 252.550074 206.057945
z
" clip-path="url(#p4a12852191)" style="fill: #e69f00; stroke: #000000; stroke-width: 0.6; stroke-linejoin: miter"/>
   </g>
   <g id="patch_10">
    <path d="M 338.43752 210.049625
L 360.768256 210.049625
L 360.768256 206.057945
L 338.43752 206.057945
z
" clip-path="url(#p4a12852191)" style="fill: #e69f00; stroke: #000000; stroke-width: 0.6; stroke-linejoin: miter"/>
   </g>
   <g id="patch_11">
    <path d="M 103.105918 210.049625
L 125.436654 210.049625
L 125.436654 210.049625
L 103.105918 210.049625
z
" clip-path="url(#p4a12852191)" style="fill: #009e73; stroke: #000000; stroke-width: 0.6; stroke-linejoin: miter"/>
   </g>
   <g id="patch_12">
    <path d="M 188.993364 210.049625
L 211.3241 210.049625
L 211.3241 210.049625
L 188.993364 210.049625
z
" clip-path="url(#p4a12852191)" style="fill: #009e73; stroke: #000000; stroke-width: 0.6; stroke-linejoin: miter"/>
   </g>
   <g id="patch_13">
    <path d="M 274.88081 210.049625
L 297.211546 210.049625
L 297.211546 210.049625
L 274.88081 210.049625
z
" clip-path="url(#p4a12852191)" style="fill: #009e73; stroke: #000000; stroke-width: 0.6; stroke-linejoin: miter"/>
   </g>
   <g id="patch_14">
    <path d="M 360.768256 210.049625
L 383.098991 210.049625
L 383.098991 210.049625
L 360.768256 210.049625
z
" clip-path="url(#p4a12852191)" style="fill: #009e73; stroke: #000000; stroke-width: 0.6; stroke-linejoin: miter"/>
   </g>
   <g id="patch_15">
    <path d="M 42.211719 210.049625
L 42.211719 10.465625
" style="fill: none; stroke: #000000; stroke-width: 0.8; stroke-linejoin: miter; stroke-linecap: square"/>
   </g>
   <g id="patch_16">
    <path d="M 399.331719 210.049625
L 399.331719 10.465625
" style="fill: none; stroke: #000000; stroke-width: 0.8; stroke-linejoin: miter; stroke-linecap: square"/>
   </g>
   <g id="patch_17">
    <path d="M 42.211719 210.049625
L 399.331719 210.049625
" style="fill: none; stroke: #000000; stroke-width: 0.8; stroke-linejoin: miter; stroke-linecap: square"/>
   </g>
   <g id="patch_18">
    <path d="M 42.211719 10.465625
L 399.331719 10.465625
" style="fill: none; stroke: #000000; stroke-width: 0.8; stroke-linejoin: miter; stroke-linecap: square"/>
   </g>
   <g id="text_13">
    <!-- 85.0 -->
    <g transform="translate(61.109814 39.340725) scale(0.085 -0.085)">
     <defs>
      <path id="SimHei-2e" d="M 1075 125
L 500 125
L 500 675
L 1075 675
L 1075 125
z
" transform="scale(0.015625)"/>
     </defs>
     <use xlink:href="#SimHei-38"/>
     <use xlink:href="#SimHei-35" transform="translate(50 0)"/>
     <use xlink:href="#SimHei-2e" transform="translate(100 0)"/>
     <use xlink:href="#SimHei-30" transform="translate(150 0)"/>
    </g>
   </g>
   <g id="text_14">
    <!-- 47.0 -->
    <g transform="translate(146.99726 115.182645) scale(0.085 -0.085)">
     <use xlink:href="#SimHei-34"/>
     <use xlink:href="#SimHei-37" transform="translate(50 0)"/>
     <use xlink:href="#SimHei-2e" transform="translate(100 0)"/>
     <use xlink:href="#SimHei-30" transform="translate(150 0)"/>
    </g>
   </g>
   <g id="text_15">
    <!-- 21.0 -->
    <g transform="translate(232.884706 167.074485) scale(0.085 -0.085)">
     <use xlink:href="#SimHei-32"/>
     <use xlink:href="#SimHei-31" transform="translate(50 0)"/>
     <use xlink:href="#SimHei-2e" transform="translate(100 0)"/>
     <use xlink:href="#SimHei-30" transform="translate(150 0)"/>
    </g>
   </g>
   <g id="text_16">
    <!-- 48.0 -->
    <g transform="translate(318.772152 113.186805) scale(0.085 -0.085)">
     <use xlink:href="#SimHei-34"/>
     <use xlink:href="#SimHei-38" transform="translate(50 0)"/>
     <use xlink:href="#SimHei-2e" transform="translate(100 0)"/>
     <use xlink:href="#SimHei-30" transform="translate(150 0)"/>
    </g>
   </g>
   <g id="text_17">
    <!-- 4.0 -->
    <g transform="translate(85.56555 201.003765) scale(0.085 -0.085)">
     <use xlink:href="#SimHei-34"/>
     <use xlink:href="#SimHei-2e" transform="translate(50 0)"/>
     <use xlink:href="#SimHei-30" transform="translate(100 0)"/>
    </g>
   </g>
   <g id="text_18">
    <!-- 1.0 -->
    <g transform="translate(171.452996 206.991285) scale(0.085 -0.085)">
     <use xlink:href="#SimHei-31"/>
     <use xlink:href="#SimHei-2e" transform="translate(50 0)"/>
     <use xlink:href="#SimHei-30" transform="translate(100 0)"/>
    </g>
   </g>
   <g id="text_19">
    <!-- 2.0 -->
    <g transform="translate(257.340442 204.995445) scale(0.085 -0.085)">
     <use xlink:href="#SimHei-32"/>
     <use xlink:href="#SimHei-2e" transform="translate(50 0)"/>
     <use xlink:href="#SimHei-30" transform="translate(100 0)"/>
    </g>
   </g>
   <g id="text_20">
    <!-- 2.0 -->
    <g transform="translate(343.227888 204.995445) scale(0.085 -0.085)">
     <use xlink:href="#SimHei-32"/>
     <use xlink:href="#SimHei-2e" transform="translate(50 0)"/>
     <use xlink:href="#SimHei-30" transform="translate(100 0)"/>
    </g>
   </g>
   <g id="text_21">
    <!-- 0.0 -->
    <g transform="translate(107.896286 208.987125) scale(0.085 -0.085)">
     <use xlink:href="#SimHei-30"/>
     <use xlink:href="#SimHei-2e" transform="translate(50 0)"/>
     <use xlink:href="#SimHei-30" transform="translate(100 0)"/>
    </g>
   </g>
   <g id="text_22">
    <!-- 0.0 -->
    <g transform="translate(193.783732 208.987125) scale(0.085 -0.085)">
     <use xlink:href="#SimHei-30"/>
     <use xlink:href="#SimHei-2e" transform="translate(50 0)"/>
     <use xlink:href="#SimHei-30" transform="translate(100 0)"/>
    </g>
   </g>
   <g id="text_23">
    <!-- 0.0 -->
    <g transform="translate(279.671178 208.987125) scale(0.085 -0.085)">
     <use xlink:href="#SimHei-30"/>
     <use xlink:href="#SimHei-2e" transform="translate(50 0)"/>
     <use xlink:href="#SimHei-30" transform="translate(100 0)"/>
    </g>
   </g>
   <g id="text_24">
    <!-- 0.0 -->
    <g transform="translate(365.558624 208.987125) scale(0.085 -0.085)">
     <use xlink:href="#SimHei-30"/>
     <use xlink:href="#SimHei-2e" transform="translate(50 0)"/>
     <use xlink:href="#SimHei-30" transform="translate(100 0)"/>
    </g>
   </g>
   <g id="legend_1">
    <g id="patch_19">
     <path d="M 238.231719 56.935156
L 393.031719 56.935156
Q 394.831719 56.935156 394.831719 55.135156
L 394.831719 16.765625
Q 394.831719 14.965625 393.031719 14.965625
L 238.231719 14.965625
Q 236.431719 14.965625 236.431719 16.765625
L 236.431719 55.135156
Q 236.431719 56.935156 238.231719 56.935156
z
" style="fill: #ffffff; opacity: 0.9; stroke: #cccccc; stroke-linejoin: miter"/>
    </g>
    <g id="patch_20">
     <path d="M 240.031719 25.948438
L 258.031719 25.948438
L 258.031719 19.648438
L 240.031719 19.648438
z
" style="fill: #56b4e9; stroke: #000000; stroke-width: 0.6; stroke-linejoin: miter"/>
    </g>
    <g id="text_25">
     <!-- B-gen（词面检测） -->
     <g transform="translate(265.231719 25.948438) scale(0.09 -0.09)">
      <defs>
       <path id="SimHei-42" d="M 2950 1400
Q 2950 675 2550 400
Q 2150 125 1525 125
L 275 125
L 275 4400
L 1575 4400
Q 2200 4400 2512 4075
Q 2825 3750 2825 3300
Q 2825 2850 2612 2637
Q 2400 2425 2175 2350
Q 2475 2275 2712 2037
Q 2950 1800 2950 1400
z
M 2250 3300
Q 2250 3625 2062 3775
Q 1875 3925 1600 3925
L 850 3925
L 850 2600
L 1575 2600
Q 1850 2600 2050 2762
Q 2250 2925 2250 3300
z
M 2350 1400
Q 2350 1800 2087 1962
Q 1825 2125 1500 2125
L 850 2125
L 850 600
L 1425 600
Q 1875 600 2112 775
Q 2350 950 2350 1400
z
" transform="scale(0.015625)"/>
       <path id="SimHei-2d" d="M 2975 2125
L 125 2125
L 125 2525
L 2975 2525
L 2975 2125
z
" transform="scale(0.015625)"/>
       <path id="SimHei-67" d="M 2975 2500
Q 2800 2550 2637 2562
Q 2475 2575 2300 2525
Q 2375 2450 2425 2337
Q 2475 2225 2475 2000
Q 2475 1575 2187 1300
Q 1900 1025 1475 1025
Q 1375 1025 1212 1062
Q 1050 1100 950 1150
Q 875 1100 850 1050
Q 825 1000 825 925
Q 825 800 1000 737
Q 1175 675 1625 675
Q 2350 675 2612 475
Q 2875 275 2875 -25
Q 2875 -425 2487 -612
Q 2100 -800 1575 -800
Q 900 -800 575 -625
Q 250 -450 250 -150
Q 250 0 375 150
Q 500 300 700 400
Q 550 475 462 587
Q 375 700 375 875
Q 375 1025 487 1137
Q 600 1250 750 1325
Q 625 1450 550 1625
Q 475 1800 475 2000
Q 475 2425 762 2700
Q 1050 2975 1475 2975
Q 1700 2975 1862 2912
Q 2025 2850 2150 2725
Q 2350 2875 2550 2937
Q 2750 3000 2975 2975
L 2975 2500
z
M 1975 2000
Q 1975 2250 1850 2400
Q 1725 2550 1475 2550
Q 1225 2550 1100 2400
Q 975 2250 975 2000
Q 975 1750 1100 1600
Q 1225 1450 1475 1450
Q 1725 1450 1850 1600
Q 1975 1750 1975 2000
z
M 2400 -75
Q 2400 25 2287 125
Q 2175 225 1725 225
Q 1625 225 1450 237
Q 1275 250 1050 275
Q 850 200 775 100
Q 700 0 700 -100
Q 700 -250 900 -350
Q 1100 -450 1600 -450
Q 2025 -450 2212 -337
Q 2400 -225 2400 -75
z
" transform="scale(0.015625)"/>
       <path id="SimHei-65" d="M 2850 1075
Q 2800 625 2450 350
Q 2100 75 1625 75
Q 1025 75 637 462
Q 250 850 250 1525
Q 250 2200 637 2587
Q 1025 2975 1625 2975
Q 2150 2975 2487 2637
Q 2825 2300 2825 1525
L 800 1525
Q 800 975 1037 750
Q 1275 525 1625 525
Q 1900 525 2075 662
Q 2250 800 2300 1075
L 2850 1075
z
M 2250 1925
Q 2200 2275 2025 2412
Q 1850 2550 1575 2550
Q 1325 2550 1125 2412
Q 925 2275 825 1925
L 2250 1925
z
" transform="scale(0.015625)"/>
       <path id="SimHei-6e" d="M 2800 125
L 2300 125
L 2300 1925
Q 2300 2225 2150 2400
Q 2000 2575 1750 2575
Q 1425 2575 1137 2237
Q 850 1900 850 1400
L 850 125
L 350 125
L 350 2925
L 850 2925
L 850 2400
Q 1050 2675 1287 2825
Q 1525 2975 1900 2975
Q 2350 2975 2575 2725
Q 2800 2475 2800 2100
L 2800 125
z
" transform="scale(0.015625)"/>
       <path id="SimHei-8bcd" d="M 5975 4875
Q 5950 4550 5950 3925
L 5950 100
Q 5950 -300 5637 -437
Q 5325 -575 4875 -625
Q 4825 -400 4625 -100
Q 5150 -100 5312 -25
Q 5475 50 5475 375
L 5475 4475
L 3400 4475
Q 2825 4475 2450 4450
L 2450 4900
Q 2775 4875 3425 4875
L 5975 4875
z
M 4625 2750
Q 4600 2550 4600 2075
L 4600 1600
Q 4600 1000 4625 475
L 4175 475
L 4175 825
L 3175 825
L 3175 375
L 2725 375
Q 2750 800 2750 1450
L 2750 2050
Q 2750 2425 2725 2750
L 4625 2750
z
M 1650 3350
Q 1625 2850 1625 2300
L 1625 600
Q 1875 800 2250 1175
Q 2325 975 2500 775
Q 2100 450 1825 175
Q 1550 -100 1250 -425
Q 1075 -175 925 0
Q 1050 150 1100 275
Q 1150 400 1150 625
L 1150 2950
L 900 2950
Q 825 2950 325 2925
L 325 3375
Q 675 3350 900 3350
L 1650 3350
z
M 4175 1225
L 4175 2375
L 3175 2375
L 3175 1225
L 4175 1225
z
M 4450 3800
Q 4700 3800 5025 3825
L 5025 3375
Q 4750 3400 4300 3400
L 3200 3400
Q 2925 3400 2450 3375
L 2450 3825
Q 2925 3800 3250 3800
L 4450 3800
z
M 1250 5250
Q 1700 4550 1850 4275
Q 1625 4150 1425 3975
Q 1050 4725 850 4975
Q 1075 5100 1250 5250
z
" transform="scale(0.015625)"/>
       <path id="SimHei-9762" d="M 5275 4850
Q 5650 4850 5950 4875
L 5950 4400
Q 5600 4425 5275 4425
L 3275 4425
Q 3175 4200 2950 3575
L 5525 3575
Q 5500 3100 5500 2600
L 5500 450
Q 5500 -100 5525 -525
L 5025 -525
L 5025 -175
L 1350 -175
L 1350 -525
L 850 -525
Q 875 -200 875 425
L 875 2650
Q 875 3125 850 3575
L 2475 3575
Q 2700 4150 2750 4425
L 1175 4425
Q 800 4425 425 4400
L 425 4875
Q 825 4850 1175 4850
L 5275 4850
z
M 2200 225
L 2200 3175
L 1350 3175
L 1350 225
L 2200 225
z
M 5025 225
L 5025 3175
L 4175 3175
L 4175 225
L 5025 225
z
M 3750 225
L 3750 1050
L 2625 1050
L 2625 225
L 3750 225
z
M 3750 2475
L 3750 3175
L 2625 3175
L 2625 2475
L 3750 2475
z
M 3750 1425
L 3750 2100
L 2625 2100
L 2625 1425
L 3750 1425
z
" transform="scale(0.015625)"/>
       <path id="SimHei-68c0" d="M 1250 4575
Q 1250 4850 1225 5150
L 1750 5150
Q 1700 4850 1700 4575
L 1700 3900
L 1950 3900
Q 2100 3900 2475 3925
L 2475 3450
Q 2050 3475 1875 3475
L 1700 3475
L 1700 2325
Q 1900 2400 2050 2525
Q 2125 2400 2250 2187
Q 2375 1975 2500 1750
Q 2325 1675 2075 1500
Q 2000 1625 1912 1837
Q 1825 2050 1700 2175
L 1700 300
Q 1700 -175 1725 -625
L 1225 -625
Q 1250 -225 1250 300
L 1250 2300
Q 1150 2050 950 1637
Q 750 1225 575 950
Q 400 1200 175 1325
Q 400 1575 550 1862
Q 700 2150 837 2437
Q 975 2725 1062 2987
Q 1150 3250 1200 3475
L 950 3475
Q 825 3475 425 3450
L 425 3925
Q 800 3900 950 3900
L 1250 3900
L 1250 4575
z
M 4912 3225
Q 4675 3425 4462 3712
Q 4250 4000 3975 4450
Q 3775 4025 3600 3737
Q 3425 3450 3225 3200
L 4850 3200
L 4850 2750
Q 4675 2775 4500 2775
L 3750 2775
Q 3450 2775 3150 2750
L 3150 3075
L 2875 2800
Q 2700 2600 2550 2450
Q 2400 2675 2100 2825
Q 2475 3075 2750 3387
Q 3025 3700 3212 3987
Q 3400 4275 3537 4587
Q 3675 4900 3725 5175
Q 4050 5100 4325 5025
Q 4225 4900 4200 4825
Q 4675 3975 5200 3637
Q 5725 3300 6150 3150
Q 5900 2925 5850 2625
Q 5600 2750 5375 2887
Q 5150 3025 4912 3225
z
M 5675 2225
Q 5400 1650 5225 1187
Q 5050 725 4800 175
L 5225 175
Q 5600 175 5975 200
L 5975 -250
Q 5675 -225 5225 -225
L 3125 -225
Q 2425 -225 2200 -250
L 2200 200
Q 2450 175 3150 175
L 4325 175
Q 4500 525 4662 987
Q 4825 1450 4912 1737
Q 5000 2025 5075 2425
Q 5400 2300 5675 2225
z
M 3000 2200
Q 3150 1850 3312 1462
Q 3475 1075 3600 725
Q 3400 650 3100 500
Q 2975 950 2875 1200
Q 2775 1450 2525 1950
Q 2825 2100 3000 2200
z
M 4000 2425
Q 4125 2075 4275 1650
Q 4425 1225 4500 1025
Q 4225 975 4000 850
Q 3900 1250 3787 1575
Q 3675 1900 3500 2225
Q 3800 2350 4000 2425
z
" transform="scale(0.015625)"/>
       <path id="SimHei-6d4b" d="M 4025 4725
Q 4000 4475 4000 4000
L 4000 2225
Q 4000 1775 4025 1350
L 3550 1350
L 3550 4325
L 2350 4325
L 2350 1325
L 1900 1325
Q 1925 1775 1925 2225
L 1925 4000
Q 1925 4200 1900 4725
L 4025 4725
z
M 5900 5075
Q 5875 4800 5875 4375
L 5875 0
Q 5875 -325 5650 -425
Q 5425 -525 4975 -600
Q 4925 -325 4775 -50
Q 5125 -50 5262 -25
Q 5400 0 5400 250
L 5400 4375
Q 5400 4775 5375 5075
L 5900 5075
z
M 3275 3725
Q 3225 3400 3200 2325
Q 3175 1250 2837 550
Q 2500 -150 2075 -600
Q 1850 -400 1600 -325
Q 2200 250 2475 962
Q 2750 1675 2762 2475
Q 2775 3275 2725 3800
Q 3000 3750 3275 3725
z
M 4950 4275
Q 4925 4000 4925 3575
L 4925 1825
Q 4925 1300 4950 850
L 4450 850
Q 4475 1150 4475 1825
L 4475 3575
Q 4475 4000 4450 4275
L 4950 4275
z
M 1700 1675
Q 1375 1075 1112 487
Q 850 -100 725 -400
Q 500 -200 200 -25
Q 475 300 762 850
Q 1050 1400 1250 2000
Q 1475 1825 1700 1675
z
M 3400 1050
Q 3800 650 4300 -125
Q 4100 -225 3875 -450
Q 3475 275 3025 750
Q 3225 875 3400 1050
z
M 600 3525
Q 1125 3125 1500 2775
Q 1300 2575 1150 2375
Q 825 2775 300 3150
Q 450 3300 600 3525
z
M 1350 4000
Q 950 4375 475 4675
Q 625 4850 775 5050
Q 1300 4700 1675 4375
Q 1500 4250 1350 4000
z
" transform="scale(0.015625)"/>
      </defs>
      <use xlink:href="#SimHei-42"/>
      <use xlink:href="#SimHei-2d" transform="translate(50 0)"/>
      <use xlink:href="#SimHei-67" transform="translate(100 0)"/>
      <use xlink:href="#SimHei-65" transform="translate(150 0)"/>
      <use xlink:href="#SimHei-6e" transform="translate(200 0)"/>
      <use xlink:href="#SimHei-ff08" transform="translate(250 0)"/>
      <use xlink:href="#SimHei-8bcd" transform="translate(350 0)"/>
      <use xlink:href="#SimHei-9762" transform="translate(450 0)"/>
      <use xlink:href="#SimHei-68c0" transform="translate(550 0)"/>
      <use xlink:href="#SimHei-6d4b" transform="translate(650 0)"/>
      <use xlink:href="#SimHei-ff09" transform="translate(750 0)"/>
     </g>
    </g>
    <g id="patch_21">
     <path d="M 240.031719 38.95625
L 258.031719 38.95625
L 258.031719 32.65625
L 240.031719 32.65625
z
" style="fill: #e69f00; stroke: #000000; stroke-width: 0.6; stroke-linejoin: miter"/>
    </g>
    <g id="text_26">
     <!-- B-gen（LLM 裁判） -->
     <g transform="translate(265.231719 38.95625) scale(0.09 -0.09)">
      <defs>
       <path id="SimHei-4c" d="M 2900 125
L 300 125
L 300 4400
L 875 4400
L 875 600
L 2900 600
L 2900 125
z
" transform="scale(0.015625)"/>
       <path id="SimHei-4d" d="M 2925 125
L 2425 125
L 2425 3175
L 2375 3175
L 1775 125
L 1375 125
L 775 3175
L 725 3175
L 725 125
L 225 125
L 225 4400
L 1000 4400
L 1550 1575
L 1600 1575
L 2150 4400
L 2925 4400
L 2925 125
z
" transform="scale(0.015625)"/>
       <path id="SimHei-20" transform="scale(0.015625)"/>
       <path id="SimHei-88c1" d="M 1825 4475
Q 1825 4950 1800 5250
L 2325 5250
Q 2275 4925 2275 4475
L 2550 4475
Q 2950 4475 3300 4500
L 3300 4050
Q 2950 4075 2575 4075
L 2275 4075
L 2275 3525
L 3775 3525
Q 3750 3825 3750 4225
Q 3750 4625 3725 5250
Q 3975 5225 4325 5175
Q 4250 5025 4237 4500
Q 4225 3975 4250 3525
L 5275 3525
Q 5725 3525 6125 3550
L 6125 3100
Q 5750 3125 5275 3125
L 4275 3125
Q 4275 2875 4362 2325
Q 4450 1775 4650 1350
Q 4800 1625 4950 1975
Q 5100 2325 5200 2750
Q 5450 2600 5750 2475
Q 5550 2250 5375 1837
Q 5200 1425 4875 800
Q 5150 325 5300 150
Q 5450 -25 5550 112
Q 5650 250 5725 625
Q 5925 350 6175 250
Q 5900 -425 5712 -562
Q 5525 -700 5350 -587
Q 5175 -475 4987 -212
Q 4800 50 4575 400
Q 4325 100 4012 -175
Q 3700 -450 3350 -675
Q 3200 -450 2950 -325
Q 3400 -100 3750 200
Q 4100 500 4325 875
Q 4075 1525 3962 2050
Q 3850 2575 3800 3125
L 1275 3125
Q 650 3125 275 3100
L 275 3550
Q 775 3525 1325 3525
L 1825 3525
L 1825 4075
L 1575 4075
Q 1125 4075 725 4050
L 725 4500
Q 1150 4475 1550 4475
L 1825 4475
z
M 2275 3025
Q 2375 2675 2450 2400
L 2900 2400
Q 3200 2400 3600 2450
L 3600 1975
Q 3275 2000 2900 2000
L 2225 2000
Q 2100 1825 1950 1550
L 1950 225
Q 2150 400 2450 600
Q 2500 375 2625 175
Q 2475 75 2137 -162
Q 1800 -400 1625 -600
Q 1425 -400 1275 -225
Q 1500 -100 1500 225
L 1500 1100
Q 1200 700 650 250
Q 500 475 275 625
Q 675 875 1037 1225
Q 1400 1575 1675 2000
L 1275 2000
Q 975 2000 425 1975
L 425 2425
Q 875 2400 1300 2400
L 1950 2400
Q 1925 2575 1800 2950
Q 2050 2975 2275 3025
z
M 3675 1500
Q 3475 1450 3150 1125
Q 3400 900 3725 500
Q 3525 375 3325 175
Q 3050 550 2750 875
Q 2450 1200 2150 1425
L 2450 1725
Q 2675 1525 2875 1350
Q 3100 1600 3300 1875
L 3675 1500
z
M 5000 5125
Q 5325 4850 5850 4200
Q 5675 4100 5450 3875
Q 5175 4275 4675 4850
Q 4825 4950 5000 5125
z
" transform="scale(0.015625)"/>
       <path id="SimHei-5224" d="M 225 -225
Q 900 50 1262 475
Q 1625 900 1700 1575
Q 700 1575 250 1550
L 250 2000
Q 700 1975 1750 1975
L 1750 2850
Q 975 2850 500 2825
L 500 3275
Q 975 3250 1750 3250
Q 1750 4600 1700 5100
L 2275 5100
Q 2225 4825 2225 4325
L 2225 3250
Q 2925 3250 3325 3275
L 3325 2825
Q 2925 2850 2225 2850
L 2225 1975
Q 3125 1975 3550 2000
L 3550 1550
Q 3150 1575 2200 1575
Q 2100 750 1662 225
Q 1225 -300 700 -600
Q 550 -375 225 -225
z
M 4500 25
Q 5050 -25 5175 0
Q 5300 25 5300 200
L 5300 4300
Q 5300 4825 5275 5125
L 5800 5125
Q 5775 4800 5775 4300
L 5775 50
Q 5775 -325 5550 -425
Q 5325 -525 4750 -575
Q 4700 -200 4500 25
z
M 4025 850
Q 4050 1225 4050 1675
L 4050 3575
Q 4050 4050 4025 4350
L 4550 4350
Q 4525 3925 4525 3500
L 4525 1675
Q 4525 1225 4550 850
L 4025 850
z
M 825 3575
Q 625 4175 400 4475
Q 625 4525 850 4675
Q 1075 4350 1325 3775
Q 1100 3700 825 3575
z
M 3575 4475
Q 3375 4250 3262 4037
Q 3150 3825 3050 3600
Q 2800 3725 2600 3800
Q 2750 4000 2887 4237
Q 3025 4475 3100 4700
Q 3275 4575 3575 4475
z
" transform="scale(0.015625)"/>
      </defs>
      <use xlink:href="#SimHei-42"/>
      <use xlink:href="#SimHei-2d" transform="translate(50 0)"/>
      <use xlink:href="#SimHei-67" transform="translate(100 0)"/>
      <use xlink:href="#SimHei-65" transform="translate(150 0)"/>
      <use xlink:href="#SimHei-6e" transform="translate(200 0)"/>
      <use xlink:href="#SimHei-ff08" transform="translate(250 0)"/>
      <use xlink:href="#SimHei-4c" transform="translate(350 0)"/>
      <use xlink:href="#SimHei-4c" transform="translate(400 0)"/>
      <use xlink:href="#SimHei-4d" transform="translate(450 0)"/>
      <use xlink:href="#SimHei-20" transform="translate(500 0)"/>
      <use xlink:href="#SimHei-88c1" transform="translate(550 0)"/>
      <use xlink:href="#SimHei-5224" transform="translate(650 0)"/>
      <use xlink:href="#SimHei-ff09" transform="translate(750 0)"/>
     </g>
    </g>
    <g id="patch_22">
     <path d="M 240.031719 51.964063
L 258.031719 51.964063
L 258.031719 45.664063
L 240.031719 45.664063
z
" style="fill: #009e73; stroke: #000000; stroke-width: 0.6; stroke-linejoin: miter"/>
    </g>
    <g id="text_27">
     <!-- B-ours（片段口径，构造性零） -->
     <g transform="translate(265.231719 51.964063) scale(0.09 -0.09)">
      <defs>
       <path id="SimHei-6f" d="M 2925 1525
Q 2925 875 2525 475
Q 2125 75 1575 75
Q 1025 75 625 475
Q 225 875 225 1525
Q 225 2175 625 2575
Q 1025 2975 1575 2975
Q 2125 2975 2525 2575
Q 2925 2175 2925 1525
z
M 2375 1525
Q 2375 2025 2125 2275
Q 1875 2525 1575 2525
Q 1275 2525 1025 2275
Q 775 2025 775 1525
Q 775 1025 1025 775
Q 1275 525 1575 525
Q 1875 525 2125 775
Q 2375 1025 2375 1525
z
" transform="scale(0.015625)"/>
       <path id="SimHei-75" d="M 2800 125
L 2300 125
L 2300 650
Q 2100 375 1862 225
Q 1625 75 1250 75
Q 800 75 575 325
Q 350 575 350 950
L 350 2925
L 850 2925
L 850 1125
Q 850 825 1000 650
Q 1150 475 1400 475
Q 1725 475 2012 812
Q 2300 1150 2300 1650
L 2300 2925
L 2800 2925
L 2800 125
z
" transform="scale(0.015625)"/>
       <path id="SimHei-72" d="M 2500 2425
Q 2025 2500 1700 2287
Q 1375 2075 1150 1550
L 1150 125
L 650 125
L 650 2925
L 1150 2925
L 1150 2200
Q 1375 2600 1712 2787
Q 2050 2975 2500 2975
L 2500 2425
z
" transform="scale(0.015625)"/>
       <path id="SimHei-73" d="M 2750 900
Q 2750 500 2437 287
Q 2125 75 1650 75
Q 1050 75 725 312
Q 400 550 400 1000
L 900 1000
Q 900 700 1112 600
Q 1325 500 1625 500
Q 1925 500 2075 612
Q 2225 725 2225 900
Q 2225 1025 2100 1150
Q 1975 1275 1475 1350
Q 900 1425 687 1637
Q 475 1850 475 2200
Q 475 2500 762 2737
Q 1050 2975 1600 2975
Q 2100 2975 2387 2750
Q 2675 2525 2675 2150
L 2175 2150
Q 2175 2375 2012 2462
Q 1850 2550 1600 2550
Q 1275 2550 1137 2437
Q 1000 2325 1000 2175
Q 1000 2000 1125 1900
Q 1250 1800 1650 1750
Q 2300 1650 2525 1437
Q 2750 1225 2750 900
z
" transform="scale(0.015625)"/>
       <path id="SimHei-7247" d="M 1900 5050
Q 1850 4700 1850 3450
L 3825 3450
Q 3825 4850 3800 5225
L 4375 5225
Q 4350 4850 4350 3450
Q 5300 3450 5850 3475
L 5850 3025
Q 5300 3050 5050 3050
L 1850 3050
Q 1850 2575 1825 2050
L 4875 2050
Q 4850 1475 4850 750
Q 4850 25 4875 -600
L 4325 -600
Q 4350 0 4350 1625
L 1775 1625
Q 1700 1100 1450 450
Q 1200 -200 875 -600
Q 750 -400 350 -300
Q 775 200 987 775
Q 1200 1350 1275 2012
Q 1350 2675 1350 3425
Q 1350 4175 1325 5100
Q 1575 5075 1900 5050
z
" transform="scale(0.015625)"/>
       <path id="SimHei-6bb5" d="M 5500 2475
Q 5350 1775 5100 1237
Q 4850 700 4600 400
Q 4825 225 5250 87
Q 5675 -50 6125 -125
Q 5950 -275 5825 -650
Q 5150 -450 4825 -287
Q 4500 -125 4225 75
Q 3825 -175 3450 -337
Q 3075 -500 2625 -650
Q 2525 -400 2325 -225
Q 2675 -150 3100 0
Q 3525 150 3925 425
Q 3725 675 3525 1150
Q 3325 1600 3225 2075
Q 3050 2075 2900 2075
L 2900 2500
Q 3375 2475 3800 2475
L 5500 2475
z
M 2650 4625
Q 2300 4550 1887 4475
Q 1475 4400 1300 4375
L 1300 3550
Q 2050 3550 2525 3600
L 2525 3125
Q 2050 3150 1300 3150
L 1300 2350
Q 2050 2350 2525 2375
L 2525 1900
Q 2050 1925 1300 1925
L 1300 975
Q 1950 1075 2625 1250
Q 2600 1000 2600 775
Q 1900 675 1300 525
L 1300 100
Q 1300 -200 1325 -625
L 800 -625
Q 825 -200 825 100
L 825 425
Q 575 375 350 300
Q 300 650 250 825
Q 500 850 825 900
L 825 3800
Q 825 4225 800 4725
Q 1100 4725 1575 4825
Q 2050 4925 2375 5125
Q 2475 4850 2650 4625
z
M 5100 4975
Q 5075 4600 5075 4275
L 5075 3650
Q 5075 3425 5237 3387
Q 5400 3350 5975 3400
Q 5875 3225 5850 2950
L 5075 2950
Q 4650 2950 4625 3375
L 4625 4575
L 3775 4575
Q 3775 3925 3675 3525
Q 3575 3125 3200 2725
Q 3025 2900 2800 3050
Q 3275 3400 3300 3937
Q 3325 4475 3300 4975
L 5100 4975
z
M 3675 2100
Q 3775 1675 3962 1287
Q 4150 900 4275 775
Q 4450 950 4625 1312
Q 4800 1675 4900 2100
L 3800 2100
L 3675 2100
z
" transform="scale(0.015625)"/>
       <path id="SimHei-53e3" d="M 5425 4300
Q 5400 3775 5400 3175
L 5400 550
Q 5400 100 5425 -425
L 4900 -425
L 4900 100
L 1525 100
L 1525 -425
L 1000 -425
Q 1025 0 1025 550
L 1025 3175
Q 1025 3775 1000 4300
L 5425 4300
z
M 4900 525
L 4900 3875
L 1525 3875
L 1525 525
L 4900 525
z
" transform="scale(0.015625)"/>
       <path id="SimHei-5f84" d="M 4700 1875
Q 5325 1875 5675 1900
L 5675 1425
Q 5350 1450 4725 1450
L 4350 1450
L 4350 100
L 5375 100
L 6075 150
L 6075 -350
Q 5725 -325 5375 -325
L 2900 -325
Q 2450 -325 2075 -350
L 2075 125
Q 2450 100 2900 100
L 3875 100
L 3875 1450
L 3550 1450
Q 3100 1450 2575 1425
L 2575 1900
Q 3100 1875 3550 1875
L 4700 1875
z
M 5625 4700
Q 5400 4325 5162 4037
Q 4925 3750 4625 3425
Q 5475 2950 6050 2550
Q 5825 2350 5675 2175
Q 4825 2850 4300 3150
Q 3900 2850 3550 2650
Q 3200 2450 2525 2100
Q 2450 2275 2175 2525
Q 2775 2700 3537 3162
Q 4300 3625 4775 4300
L 3475 4300
Q 3025 4300 2625 4275
L 2625 4725
Q 3000 4700 3450 4700
L 5625 4700
z
M 2550 3600
Q 2300 3375 1725 2625
L 1725 575
Q 1725 50 1750 -600
L 1250 -600
Q 1275 50 1275 600
L 1275 2150
Q 925 1825 600 1550
Q 450 1725 275 1900
Q 850 2275 1337 2837
Q 1825 3400 2100 3950
Q 2300 3775 2550 3600
z
M 2275 4850
Q 2100 4650 1637 4150
Q 1175 3650 750 3275
Q 600 3450 375 3625
Q 825 3925 1212 4337
Q 1600 4750 1850 5175
Q 2050 5000 2275 4850
z
" transform="scale(0.015625)"/>
       <path id="SimHei-ff0c" d="M 875 950
L 1775 950
L 1775 -50
Q 1700 -675 1150 -975
L 900 -750
Q 1350 -500 1350 0
L 875 0
L 875 950
z
" transform="scale(0.015625)"/>
       <path id="SimHei-6784" d="M 2250 1625
Q 2050 2100 1825 2475
L 1825 575
Q 1825 50 1850 -500
L 1325 -500
Q 1350 75 1350 575
L 1350 2375
Q 1075 1750 525 1000
Q 375 1200 175 1400
Q 625 1900 912 2512
Q 1200 3125 1250 3500
Q 850 3500 475 3475
L 475 3925
Q 850 3900 1350 3900
L 1350 4475
Q 1350 4850 1325 5150
L 1850 5150
Q 1825 4900 1825 4475
L 1825 3900
Q 2150 3900 2525 3925
L 2525 3475
Q 2150 3500 1825 3500
L 1825 2525
Q 2025 2625 2225 2750
Q 2475 2300 2700 1875
Q 2475 1775 2250 1625
z
M 4000 5050
Q 3875 4875 3762 4625
Q 3650 4375 3550 4125
L 6025 4125
Q 6000 3750 5975 3200
Q 5975 1675 5875 350
Q 5775 -200 5462 -337
Q 5150 -475 4500 -525
Q 4450 -250 4300 50
Q 4825 25 5100 75
Q 5375 125 5425 725
Q 5525 2125 5500 3700
L 3375 3700
Q 3150 3200 2875 2750
Q 2675 2900 2450 2975
Q 2825 3525 3075 4150
Q 3325 4775 3425 5250
Q 3725 5100 4000 5050
z
M 4450 1050
Q 4175 1025 3662 950
Q 3150 875 2800 725
Q 2700 1025 2575 1300
Q 2725 1350 2925 1675
Q 3125 2000 3250 2337
Q 3375 2675 3500 3150
Q 3800 3025 4075 2875
Q 3925 2725 3637 2162
Q 3350 1600 3175 1350
Q 3725 1375 4375 1425
Q 4275 1775 4125 2175
L 4625 2325
Q 4775 1900 4900 1525
Q 5025 1150 5075 800
Q 4800 750 4550 650
Q 4500 875 4450 1050
z
" transform="scale(0.015625)"/>
       <path id="SimHei-9020" d="M 5525 2325
Q 5500 1825 5500 1350
Q 5500 875 5525 400
L 5000 400
L 5000 750
L 3025 750
L 3025 425
L 2525 425
Q 2550 900 2550 1375
Q 2550 1850 2525 2325
L 5525 2325
z
M 200 -100
Q 950 475 1250 625
L 1250 2600
Q 775 2600 350 2575
L 350 3025
Q 850 3000 1750 3000
Q 1725 2525 1725 2250
L 1725 675
Q 2050 325 2600 175
Q 3150 25 4075 0
Q 5000 -25 6200 50
Q 6000 -200 5975 -525
Q 3575 -475 3125 -400
Q 2675 -325 2375 -212
Q 2075 -100 1762 112
Q 1450 325 1125 37
Q 800 -250 600 -525
Q 425 -300 200 -100
z
M 3150 4900
Q 3000 4625 2950 4400
L 3800 4400
Q 3800 5000 3775 5225
L 4275 5225
Q 4250 4975 4250 4400
Q 5150 4400 5625 4425
L 5625 4000
Q 5175 4025 4250 4025
L 4250 3200
Q 5575 3200 6050 3225
L 6050 2775
Q 5575 2800 3975 2800
Q 2400 2800 1950 2775
L 1950 3225
Q 2400 3200 3800 3200
L 3800 4025
L 2825 4025
Q 2675 3750 2550 3450
Q 2325 3550 2100 3625
Q 2400 4175 2600 5025
Q 2850 4975 3150 4900
z
M 5000 1125
L 5000 1925
L 3025 1925
L 3025 1125
L 5000 1125
z
M 1775 4000
Q 1575 3850 1350 3725
Q 1000 4250 650 4725
Q 850 4875 1025 5025
Q 1625 4225 1775 4000
z
" transform="scale(0.015625)"/>
       <path id="SimHei-6027" d="M 3450 4525
Q 3325 4075 3275 3750
L 4050 3750
L 4050 4275
Q 4050 4700 4025 5100
L 4550 5100
Q 4525 4700 4525 4275
L 4525 3750
L 5025 3750
Q 5350 3750 5800 3775
L 5800 3300
Q 5350 3325 5025 3325
L 4525 3325
L 4525 2000
L 4975 2000
Q 5350 2000 5725 2025
L 5725 1550
Q 5350 1575 4975 1575
L 4525 1575
L 4525 25
L 5200 25
Q 5625 25 6025 50
L 6025 -400
Q 5625 -375 5200 -375
L 3275 -375
Q 2825 -375 2400 -400
L 2400 50
Q 2825 25 3250 25
L 4050 25
L 4050 1575
L 3625 1575
Q 3300 1575 2875 1550
L 2875 2025
Q 3200 2000 3625 2000
L 4050 2000
L 4050 3325
L 3175 3325
Q 3100 2950 2775 2225
Q 2500 2375 2325 2400
Q 2675 3125 2775 3650
Q 2875 4175 2950 4650
Q 3200 4575 3450 4525
z
M 1700 5150
Q 1675 4650 1675 4175
L 1675 425
Q 1675 -100 1700 -625
L 1175 -625
Q 1200 -100 1200 425
L 1200 4175
Q 1200 4700 1175 5150
L 1700 5150
z
M 975 3725
Q 825 2675 700 2150
Q 450 2200 250 2250
Q 425 2900 525 3800
Q 725 3775 975 3725
z
M 2125 4025
Q 2325 3625 2525 3000
Q 2300 2925 2125 2825
Q 1950 3375 1750 3850
Q 1950 3950 2125 4025
z
" transform="scale(0.015625)"/>
       <path id="SimHei-96f6" d="M 3375 2525
Q 3425 2425 3950 2125
Q 4475 1825 4975 1675
Q 5475 1525 6075 1450
Q 5875 1200 5775 925
Q 5325 1025 4900 1175
Q 4475 1325 3950 1637
Q 3425 1950 3100 2250
Q 2875 2075 2512 1812
Q 2150 1550 1662 1312
Q 1175 1075 625 900
Q 525 1100 325 1375
Q 800 1450 1175 1600
Q 1550 1750 1875 1925
Q 2200 2100 2475 2325
Q 2750 2550 2925 2825
Q 2950 3100 2950 3450
L 2950 3925
L 950 3925
L 950 3250
L 475 3250
L 475 4300
L 2950 4300
L 2950 4700
L 1775 4700
Q 1425 4700 1100 4675
L 1100 5100
Q 1425 5075 1750 5075
L 4625 5075
Q 4875 5075 5325 5100
L 5325 4675
Q 4875 4700 4475 4700
L 3400 4700
L 3400 4300
L 5875 4300
Q 5850 4050 5850 3800
Q 5850 3550 5875 3300
L 5400 3300
L 5400 3925
L 3400 3925
L 3400 3450
Q 3400 3175 3425 2825
L 3050 2825
Q 3250 2750 3525 2675
L 3375 2525
z
M 2300 500
Q 2750 350 3175 200
Q 3325 325 3750 775
L 2325 775
Q 1900 775 1475 750
L 1475 1200
Q 1900 1175 2325 1175
L 4700 1175
Q 4475 950 4150 587
Q 3825 225 3625 50
Q 3775 -25 3950 -87
Q 4125 -150 4400 -275
Q 4250 -475 4125 -700
Q 3450 -400 2950 -212
Q 2450 -25 2100 75
Q 2225 275 2300 500
z
M 5075 2600
L 3750 2600
L 3750 2950
L 5075 2950
L 5075 2600
z
M 5075 3325
L 3775 3325
L 3775 3675
L 5075 3675
L 5075 3325
z
M 2500 3325
L 1250 3325
L 1250 3675
L 2500 3675
L 2500 3325
z
M 2475 2600
L 1225 2600
L 1225 2950
L 2475 2950
L 2475 2600
z
M 3100 1950
Q 3200 1800 3237 1712
Q 3275 1625 3400 1400
Q 3150 1300 2975 1200
Q 2850 1500 2700 1775
Q 2975 1875 3100 1950
z
" transform="scale(0.015625)"/>
      </defs>
      <use xlink:href="#SimHei-42"/>
      <use xlink:href="#SimHei-2d" transform="translate(50 0)"/>
      <use xlink:href="#SimHei-6f" transform="translate(100 0)"/>
      <use xlink:href="#SimHei-75" transform="translate(150 0)"/>
      <use xlink:href="#SimHei-72" transform="translate(200 0)"/>
      <use xlink:href="#SimHei-73" transform="translate(250 0)"/>
      <use xlink:href="#SimHei-ff08" transform="translate(300 0)"/>
      <use xlink:href="#SimHei-7247" transform="translate(400 0)"/>
      <use xlink:href="#SimHei-6bb5" transform="translate(500 0)"/>
      <use xlink:href="#SimHei-53e3" transform="translate(600 0)"/>
      <use xlink:href="#SimHei-5f84" transform="translate(700 0)"/>
      <use xlink:href="#SimHei-ff0c" transform="translate(800 0)"/>
      <use xlink:href="#SimHei-6784" transform="translate(900 0)"/>
      <use xlink:href="#SimHei-9020" transform="translate(1000 0)"/>
      <use xlink:href="#SimHei-6027" transform="translate(1100 0)"/>
      <use xlink:href="#SimHei-96f6" transform="translate(1200 0)"/>
      <use xlink:href="#SimHei-ff09" transform="translate(1300 0)"/>
     </g>
    </g>
   </g>
  </g>
 </g>
 <defs>
  <clipPath id="p4a12852191">
   <rect x="42.211719" y="10.465625" width="357.12" height="199.584"/>
  </clipPath>
 </defs>
</svg>
